<svg width="54" height="51" viewBox="0 0 54 51" fill="none" xmlns="http://www.w3.org/2000/svg">
<path d="M46.25 19.877V7.50195C46.25 4.46439 43.7876 2.00195 40.75 2.00195H7.75C4.71243 2.00195 2.25 4.46439 2.25 7.50196V29.0237C2.25 32.0613 4.71244 34.5237 7.75 34.5237H12.0543V46.002L23.5326 34.5237H24.25M38.4484 41.578L45.6223 48.752V41.578H46.25C49.2876 41.578 51.75 39.1156 51.75 36.078V26.752C51.75 23.7144 49.2876 21.252 46.25 21.252H29.75C26.7124 21.252 24.25 23.7144 24.25 26.752V36.078C24.25 39.1156 26.7124 41.578 29.75 41.578H38.4484Z" stroke="black" stroke-width="3" stroke-linecap="round" stroke-linejoin="round"/>
</svg>
