<svg width="24" height="25" viewBox="0 0 24 25" fill="none" xmlns="http://www.w3.org/2000/svg">
<path d="M7.16557 17.5893H3.49621C2.89028 17.5893 2.40002 17.0981 2.40002 16.4921V4.97214C2.40002 4.36621 2.89123 3.875 3.49717 3.875H7.71365C8.87757 3.875 9.99382 4.33737 10.8168 5.16038L11.7257 6.06929L12.6346 5.16038C13.4577 4.33737 14.5739 3.875 15.7378 3.875H20.5029C21.1088 3.875 21.6 4.36621 21.6 4.97214V16.4921C21.6 17.0981 21.1088 17.5893 20.5029 17.5893H16.2864C15.1225 17.5893 14.0062 18.0517 13.1832 18.8747L11.7257 20.3321L10.2683 18.8747C9.44525 18.0517 8.32949 17.5893 7.16557 17.5893Z" fill="#80685D"/>
<path d="M11.7257 20.3321V5.52071M11.7257 20.3321L10.2683 18.8747C9.44525 18.0517 8.32949 17.5893 7.16557 17.5893H3.49621C2.89028 17.5893 2.40002 17.0981 2.40002 16.4921V4.97214C2.40002 4.36621 2.89123 3.875 3.49717 3.875H7.71365C8.87757 3.875 9.99382 4.33737 10.8168 5.16038L11.7257 6.06929L12.6346 5.16038C13.4577 4.33737 14.5739 3.875 15.7378 3.875H20.5029C21.1088 3.875 21.6 4.36621 21.6 4.97214V16.4921C21.6 17.0981 21.1088 17.5893 20.5029 17.5893H16.2864C15.1225 17.5893 14.0062 18.0517 13.1832 18.8747L11.7257 20.3321Z" stroke="black" stroke-width="2" stroke-linecap="round" stroke-linejoin="round"/>
</svg>
