<svg viewBox="0 0 30 30" fill="none" xmlns="http://www.w3.org/2000/svg">
<rect width="30" height="30" rx="5" fill="#664D44"/>
<path d="M10.4677 20.5H7.02768C6.45961 20.5 6 20.0523 6 19.5V9C6 8.44772 6.46051 8 7.02857 8H10.9815C12.0727 8 13.1192 8.42143 13.8908 9.17157L14.7429 10L15.595 9.17157C16.3665 8.42143 17.413 8 18.5042 8H22.9714C23.5395 8 24 8.44772 24 9V19.5C24 20.0523 23.5395 20.5 22.9714 20.5H19.0185C17.9273 20.5 16.8808 20.9214 16.1092 21.6716L14.7429 23L13.3765 21.6716C12.6049 20.9214 11.5589 20.5 10.4677 20.5Z" fill="white"/>
<path d="M14.7429 23L13.3765 21.6716C12.6049 20.9214 11.5589 20.5 10.4677 20.5H7.02768C6.45961 20.5 6 20.0523 6 19.5V9C6 8.44772 6.46051 8 7.02857 8H10.9815C12.0727 8 13.1192 8.42143 13.8908 9.17157L14.7429 10L15.595 9.17157C16.3665 8.42143 17.413 8 18.5042 8H22.9714C23.5395 8 24 8.44772 24 9V19.5C24 20.0523 23.5395 20.5 22.9714 20.5H19.0185C17.9273 20.5 16.8808 20.9214 16.1092 21.6716L14.7429 23ZM14.7429 23V16.25V9.5" stroke="#664D44" stroke-linecap="round" stroke-linejoin="round"/>
</svg>
