<svg width="55" height="55" viewBox="0 0 55 55" fill="none" xmlns="http://www.w3.org/2000/svg">
<path d="M42.3246 51.5622C41.9628 51.5636 41.6098 51.4508 41.3159 51.2399L27.5004 41.2239L13.6848 51.2399C13.3897 51.454 13.0341 51.5687 12.6695 51.5673C12.3048 51.566 11.9501 51.4488 11.6565 51.2326C11.3629 51.0163 11.1457 50.7123 11.0362 50.3645C10.9268 50.0167 10.9308 49.6431 11.0476 49.2977L16.4359 33.3381L2.47107 23.7614C2.16858 23.5542 1.94028 23.2557 1.81953 22.9095C1.69877 22.5633 1.69189 22.1876 1.79988 21.8372C1.90788 21.4868 2.12509 21.1801 2.41979 20.962C2.71448 20.7438 3.07122 20.6257 3.43787 20.6247H20.6662L25.8654 4.6242C25.9774 4.27875 26.196 3.97766 26.4897 3.76412C26.7834 3.55057 27.1372 3.43555 27.5004 3.43555C27.8635 3.43555 28.2173 3.55057 28.5111 3.76412C28.8048 3.97766 29.0233 4.27875 29.1353 4.6242L34.3346 20.6301H51.5629C51.93 20.6299 52.2875 20.7472 52.5831 20.965C52.8787 21.1827 53.0968 21.4893 53.2054 21.84C53.3141 22.1906 53.3077 22.5669 53.187 22.9136C53.0664 23.2603 52.8379 23.5593 52.535 23.7668L38.5648 33.3381L43.9499 49.2934C44.0371 49.5518 44.0617 49.8271 44.0215 50.0968C43.9813 50.3665 43.8775 50.6227 43.7187 50.8444C43.5599 51.066 43.3507 51.2467 43.1083 51.3715C42.8659 51.4964 42.5972 51.5617 42.3246 51.5622Z" fill="#624E45"/>
</svg>
