<svg width="53" height="49" viewBox="0 0 53 49" fill="none" xmlns="http://www.w3.org/2000/svg">
<path d="M41.3246 48.5622C40.9628 48.5636 40.6098 48.4508 40.3159 48.2399L26.5004 38.2239L12.6848 48.2399C12.3897 48.454 12.0341 48.5687 11.6695 48.5673C11.3048 48.566 10.9501 48.4488 10.6565 48.2326C10.3629 48.0163 10.1457 47.7123 10.0362 47.3645C9.92677 47.0167 9.93077 46.6431 10.0476 46.2977L15.4359 30.3381L1.47107 20.7614C1.16858 20.5542 0.940281 20.2557 0.819525 19.9095C0.698769 19.5633 0.691886 19.1876 0.799881 18.8372C0.907877 18.4868 1.12509 18.1801 1.41979 17.962C1.71448 17.7438 2.07122 17.6257 2.43787 17.6247H19.6662L24.8654 1.6242C24.9774 1.27875 25.196 0.977661 25.4897 0.764116C25.7834 0.55057 26.1372 0.435547 26.5004 0.435547C26.8635 0.435547 27.2173 0.55057 27.5111 0.764116C27.8048 0.977661 28.0233 1.27875 28.1353 1.6242L33.3346 17.6301H50.5629C50.93 17.6299 51.2875 17.7472 51.5831 17.965C51.8787 18.1827 52.0968 18.4893 52.2054 18.84C52.3141 19.1906 52.3077 19.5669 52.187 19.9136C52.0664 20.2603 51.8379 20.5593 51.535 20.7668L37.5648 30.3381L42.9499 46.2934C43.0371 46.5518 43.0617 46.8271 43.0215 47.0968C42.9813 47.3665 42.8775 47.6227 42.7187 47.8444C42.5599 48.066 42.3507 48.2467 42.1083 48.3715C41.8659 48.4964 41.5972 48.5617 41.3246 48.5622Z" fill="#624E45"/>
</svg>
