<svg width="20" height="17" viewBox="0 0 20 17" fill="none" xmlns="http://www.w3.org/2000/svg">
<path d="M5.4677 13.5H2.02768C1.45961 13.5 1 13.0523 1 12.5V2C1 1.44772 1.46051 1 2.02857 1H5.98152C7.0727 1 8.11918 1.42143 8.89076 2.17157L9.74286 3L10.595 2.17157C11.3665 1.42143 12.413 1 13.5042 1H17.9714C18.5395 1 19 1.44772 19 2V12.5C19 13.0523 18.5395 13.5 17.9714 13.5H14.0185C12.9273 13.5 11.8808 13.9214 11.1092 14.6716L9.74286 16L8.37647 14.6716C7.6049 13.9214 6.55888 13.5 5.4677 13.5Z" fill="white"/>
<path d="M9.74286 16L8.37647 14.6716C7.6049 13.9214 6.55888 13.5 5.4677 13.5H2.02768C1.45961 13.5 1 13.0523 1 12.5V2C1 1.44772 1.46051 1 2.02857 1H5.98152C7.0727 1 8.11918 1.42143 8.89076 2.17157L9.74286 3L10.595 2.17157C11.3665 1.42143 12.413 1 13.5042 1H17.9714C18.5395 1 19 1.44772 19 2V12.5C19 13.0523 18.5395 13.5 17.9714 13.5H14.0185C12.9273 13.5 11.8808 13.9214 11.1092 14.6716L9.74286 16ZM9.74286 16V9.25V2.5" stroke="#624E45" stroke-linecap="round" stroke-linejoin="round"/>
</svg>
