<svg width="27" height="22" viewBox="0 0 27 22" fill="none" xmlns="http://www.w3.org/2000/svg">
<path d="M7.40594 17.4811H2.76827C2.00244 17.4811 1.38281 16.8773 1.38281 16.1326V1.97349C1.38281 1.22874 2.00364 0.625 2.76948 0.625H8.09864C9.56971 0.625 10.9805 1.19329 12.0207 2.20485L13.1695 3.32197L14.3182 2.20485C15.3584 1.19329 16.7693 0.625 18.2403 0.625H24.2628C25.0287 0.625 25.6495 1.22874 25.6495 1.97348V16.1326C25.6495 16.8773 25.0287 17.4811 24.2628 17.4811H18.9337C17.4626 17.4811 16.0518 18.0494 15.0116 19.0609L13.1695 20.8523L11.3274 19.0609C10.2872 18.0494 8.87701 17.4811 7.40594 17.4811Z" fill="white"/>
<path d="M13.1695 20.8523L11.3274 19.0609C10.2872 18.0494 8.87701 17.4811 7.40594 17.4811H2.76827C2.00244 17.4811 1.38281 16.8773 1.38281 16.1326V1.97349C1.38281 1.22874 2.00364 0.625 2.76948 0.625H8.09864C9.56971 0.625 10.9805 1.19329 12.0207 2.20485L13.1695 3.32197L14.3182 2.20485C15.3584 1.19329 16.7693 0.625 18.2403 0.625H24.2628C25.0287 0.625 25.6495 1.22874 25.6495 1.97349V16.1326C25.6495 16.8773 25.0287 17.4811 24.2628 17.4811H18.9337C17.4626 17.4811 16.0518 18.0494 15.0116 19.0609L13.1695 20.8523ZM13.1695 20.8523V11.75V2.64773" stroke="#624E45" stroke-linecap="round" stroke-linejoin="round"/>
</svg>
