<svg width="29" height="24" viewBox="0 0 29 24" fill="none" xmlns="http://www.w3.org/2000/svg">
<path d="M7.70155 19.3333H2.54151C1.68942 19.3333 1 18.6767 1 17.8667V2.46667C1 1.65665 1.69076 1 2.54286 1H8.47228C10.109 1 11.6788 1.61809 12.8361 2.71831L14.1143 3.93333L15.3924 2.71831C16.5498 1.61809 18.1195 1 19.7563 1H26.4571C27.3092 1 28 1.65665 28 2.46667V17.8667C28 18.6767 27.3092 19.3333 26.4571 19.3333H20.5277C18.891 19.3333 17.3212 19.9514 16.1639 21.0516L14.1143 23L12.0647 21.0516C10.9073 19.9514 9.33832 19.3333 7.70155 19.3333Z" fill="white"/>
<path d="M14.1143 23L12.0647 21.0516C10.9073 19.9514 9.33832 19.3333 7.70155 19.3333H2.54151C1.68942 19.3333 1 18.6767 1 17.8667V2.46667C1 1.65665 1.69076 1 2.54286 1H8.47228C10.109 1 11.6788 1.61809 12.8361 2.71831L14.1143 3.93333L15.3924 2.71831C16.5498 1.61809 18.1195 1 19.7563 1H26.4571C27.3092 1 28 1.65665 28 2.46667V17.8667C28 18.6767 27.3092 19.3333 26.4571 19.3333H20.5277C18.891 19.3333 17.3212 19.9514 16.1639 21.0516L14.1143 23ZM14.1143 23V13.1V3.2" stroke="#624E45" stroke-linecap="round" stroke-linejoin="round"/>
</svg>
