<svg width="66" height="66" viewBox="0 0 66 66" fill="none" xmlns="http://www.w3.org/2000/svg">
<path d="M55 33V15.8085C55 15.3708 54.8262 14.9512 54.5168 14.6417L45.8582 5.98329C45.5488 5.67383 45.1291 5.5 44.6916 5.5H12.65C11.7387 5.5 11 6.23873 11 7.15V58.85C11 59.7613 11.7387 60.5 12.65 60.5H30.25" stroke="#624E45" stroke-width="3" stroke-linecap="round" stroke-linejoin="round"/>
<path d="M22 38.5H30.25M22 27.5H44H22ZM22 16.5H33H22Z" stroke="#624E45" stroke-width="3" stroke-linecap="round" stroke-linejoin="round"/>
<path d="M44 14.85V6.47226C44 5.9353 44.4353 5.5 44.9724 5.5C45.2301 5.5 45.4773 5.60244 45.6599 5.78476L54.7151 14.8402C54.8977 15.0226 55 15.2699 55 15.5277C55 16.0647 54.5647 16.5 54.0276 16.5H45.65C44.7387 16.5 44 15.7613 44 14.85Z" fill="#624E45" stroke="#624E45" stroke-width="1.5" stroke-linecap="round" stroke-linejoin="round"/>
<path d="M49.3744 46.5829L53.7354 50.9438M49.3744 46.5829L52.1244 43.8329C53.3286 42.6286 55.2811 42.6286 56.4854 43.8329C57.6896 45.0371 57.6896 46.9896 56.4854 48.1938L53.7354 50.9438L49.3744 46.5829ZM49.3744 46.5829L41.1489 54.8084C40.7367 55.2206 40.4661 55.7533 40.3764 56.3291L39.709 60.6092L43.9888 59.9421C44.5649 59.8522 45.0973 59.5816 45.5096 59.1693L53.7354 50.9438L49.3744 46.5829Z" stroke="#624E45" stroke-width="3" stroke-linecap="round" stroke-linejoin="round"/>
</svg>
