<svg width="66" height="66" viewBox="0 0 66 66" fill="none" xmlns="http://www.w3.org/2000/svg">
<path d="M52.25 28.875V16.5C52.25 13.4624 49.7876 11 46.75 11H13.75C10.7124 11 8.25 13.4624 8.25 16.5V38.0217C8.25 41.0593 10.7124 43.5217 13.75 43.5217H18.0543V55L29.5326 43.5217H30.25M44.4484 50.5761L51.6223 57.75V50.5761H52.25C55.2876 50.5761 57.75 48.1137 57.75 45.0761V35.75C57.75 32.7124 55.2876 30.25 52.25 30.25H35.75C32.7124 30.25 30.25 32.7124 30.25 35.75V45.0761C30.25 48.1137 32.7124 50.5761 35.75 50.5761H44.4484Z" stroke="#624E45" stroke-width="3" stroke-linecap="round" stroke-linejoin="round"/>
</svg>
