<svg width="55" height="55" viewBox="0 0 55 55" fill="none" xmlns="http://www.w3.org/2000/svg">
<path d="M42.3228 50.5622L42.3207 50.5622C42.17 50.5628 42.023 50.516 41.9003 50.4285C41.8998 50.4281 41.8994 50.4278 41.8989 50.4274L28.0873 40.4143L27.5004 39.9888L26.9134 40.4143L13.0979 50.4303L13.0977 50.4304C12.9743 50.52 12.8256 50.5679 12.6731 50.5674C12.5206 50.5668 12.3723 50.5178 12.2495 50.4273C12.1267 50.3369 12.0359 50.2098 11.9901 50.0644C11.9443 49.9189 11.946 49.7627 11.9949 49.6182L11.9951 49.6176L17.3834 33.6579L17.6254 32.9412L17.0015 32.5134L3.03663 22.9367L3.0362 22.9364C2.9097 22.8498 2.81423 22.7249 2.76373 22.5802C2.71324 22.4354 2.71036 22.2783 2.75552 22.1317C2.80068 21.9852 2.89152 21.857 3.01475 21.7657C3.13769 21.6747 3.28644 21.6253 3.43938 21.6247H20.6662H21.3927L21.6172 20.9337L26.8165 4.93323L26.8167 4.93262C26.8635 4.78816 26.9549 4.66225 27.0777 4.57295C27.2006 4.48365 27.3485 4.43555 27.5004 4.43555C27.6522 4.43555 27.8002 4.48365 27.923 4.57295C28.0459 4.66225 28.1372 4.78816 28.1841 4.93262L28.1843 4.93314L33.3835 20.939L33.6079 21.6301H34.3345H51.5629H51.5634C51.7169 21.63 51.8664 21.6791 51.99 21.7701C52.1136 21.8612 52.2048 21.9894 52.2503 22.136C52.2957 22.2827 52.293 22.44 52.2426 22.585C52.1921 22.73 52.0966 22.855 51.9699 22.9418L51.9698 22.9418L37.9996 32.5131L37.3753 32.9408L37.6173 33.6579L43.0024 49.6132L43.0025 49.6134C43.039 49.7215 43.0492 49.8366 43.0324 49.9494C43.0156 50.0622 42.9722 50.1693 42.9058 50.262C42.8394 50.3547 42.7519 50.4303 42.6505 50.4825C42.5492 50.5347 42.4368 50.562 42.3228 50.5622Z" stroke="#624E45" stroke-width="2"/>
<path d="M3 21.875L18 33.125L12.5 50L27.5 39.3742V5L21.5 21.875H3Z" fill="#624E45"/>
</svg>
