<svg width="18" height="17" viewBox="0 0 18 18" fill="none" xmlns="http://www.w3.org/2000/svg">
<path fill-rule="evenodd" clip-rule="evenodd" d="M2.16762 2.33643C2.91547 1.51576 3.92965 1.05473 4.98711 1.05473C6.04457 1.05473 7.05875 1.51576 7.8066 2.33643L8.97507 3.61797L10.1435 2.33643C10.5114 1.91832 10.9515 1.58483 11.438 1.3554C11.9246 1.12598 12.4479 1.00522 12.9774 1.00017C13.5069 0.995114 14.032 1.10588 14.5221 1.32598C15.0122 1.54609 15.4575 1.87114 15.832 2.28217C16.2064 2.69319 16.5025 3.18196 16.703 3.71995C16.9035 4.25794 17.0044 4.83438 16.9998 5.41564C16.9952 5.99689 16.8852 6.57132 16.6762 7.1054C16.4672 7.63949 16.1634 8.12253 15.7825 8.52635L8.97507 16L2.16762 8.52635C1.41999 7.70543 1 6.59217 1 5.43139C1 4.27061 1.41999 3.15735 2.16762 2.33643Z" fill="#80685D" stroke="#80685D" stroke-width="2" stroke-linejoin="round"/>
</svg>
