<svg width="18" height="17" viewBox="0 0 36 33" fill="none" xmlns="http://www.w3.org/2000/svg">
<path fill-rule="evenodd" clip-rule="evenodd" d="M2.62715 2.94014C4.30982 1.13466 6.5917 0.1204 8.971 0.1204C11.3503 0.1204 13.6322 1.13466 15.3148 2.94014L17.9439 5.75953L20.573 2.94014C21.4007 2.02031 22.3908 1.28662 23.4855 0.781886C24.5803 0.27715 25.7577 0.0114757 26.9491 0.000363624C28.1405 -0.0107484 29.3221 0.232925 30.4248 0.717166C31.5276 1.20141 32.5294 1.91652 33.3719 2.82077C34.2144 3.72502 34.8807 4.80031 35.3318 5.98389C35.783 7.16747 36.01 8.43564 35.9997 9.7144C35.9893 10.9932 35.7418 12.2569 35.2715 13.4319C34.8013 14.6069 34.1177 15.6696 33.2607 16.558L17.9439 33L2.62715 16.558C0.944986 14.7519 0 12.3028 0 9.74906C0 7.19534 0.944986 4.74617 2.62715 2.94014Z" fill="#FF5959"/>
</svg>
