<svg width="20" height="19" viewBox="0 0 20 19" fill="none" xmlns="http://www.w3.org/2000/svg">
<path fill-rule="evenodd" clip-rule="evenodd" d="M1.40115 2.10371C2.29857 1.11891 3.51558 0.565673 4.78453 0.565673C6.05349 0.565673 7.2705 1.11891 8.16792 2.10371L9.57009 3.64156L10.9723 2.10371C11.4137 1.60199 11.9418 1.20179 12.5256 0.926483C13.1095 0.651173 13.7374 0.506259 14.3729 0.500198C15.0083 0.494137 15.6384 0.62705 16.2266 0.891181C16.8147 1.15531 17.349 1.54537 17.7983 2.0386C18.2477 2.53183 18.603 3.11835 18.8436 3.76394C19.0843 4.40953 19.2053 5.10126 19.1998 5.79876C19.1943 6.49627 19.0623 7.18558 18.8115 7.82648C18.5607 8.46738 18.1961 9.04704 17.739 9.53162L9.57009 18.5L1.40115 9.53162C0.503992 8.54652 0 7.21061 0 5.81767C0 4.42473 0.503992 3.08882 1.40115 2.10371Z" fill="#1E293B"/>
</svg>
