<svg width="22" height="19" viewBox="0 0 22 19" fill="none" xmlns="http://www.w3.org/2000/svg">
<path d="M10.3257 17.4571V2.64571M10.3257 17.4571L8.86824 15.9997C8.04522 15.1767 6.92947 14.7143 5.76555 14.7143H2.09619C1.49025 14.7143 1 14.2231 1 13.6171V2.09714C1 1.49121 1.49121 1 2.09714 1H6.31362C7.47754 1 8.59379 1.46237 9.41681 2.28538L10.3257 3.19429L11.2346 2.28538C12.0576 1.46237 13.1739 1 14.3378 1H19.1029C19.7088 1 20.2 1.49121 20.2 2.09714V13.6171C20.2 14.2231 19.7088 14.7143 19.1029 14.7143H14.8864C13.7225 14.7143 12.6062 15.1767 11.7832 15.9997L10.3257 17.4571Z" stroke="white" stroke-width="2" stroke-linecap="round" stroke-linejoin="round"/>
</svg>
