<svg viewBox="0 0 30 30" fill="none" xmlns="http://www.w3.org/2000/svg" preserveAspectRatio="xMidYMid meet">
  <rect width="30" height="30" rx="5" fill="#664D44" />
  <rect x="7" y="6" width="16" height="17" rx="2" fill="white" />
  <path d="M9.78261 24H21.6087C22.3771 24 23 23.3801 23 22.6154V18.4615H9.78261C8.24582 18.4615 7 19.7014 7 21.2308C7 22.7602 8.24582 24 9.78261 24Z" fill="white" />
  <path d="M23 18.4615H9.78261C8.24582 18.4615 7 19.7014 7 21.2308M23 18.4615V22.6154C23 23.3801 22.3771 24 21.6087 24H9.78261C8.24582 24 7 22.7602 7 21.2308M23 18.4615C23 14.1357 23 11.7104 23 7.38462C23 6.61991 22.3771 6 21.6087 6H11.5217M7 21.2308C7 16.3642 7 13.6358 7 8.76923C7 7.23983 8.24582 6 9.78261 6H11.5217M15.0541 10.1538H18.8696M15.0541 14.3077H18.8696M11.5217 18.375C11.5217 13.5423 11.5217 10.8327 11.5217 6" stroke="#664D44" stroke-linecap="round" stroke-linejoin="round" />
</svg>
