<svg width="30" height="30" viewBox="0 0 30 30" fill="none" xmlns="http://www.w3.org/2000/svg">
<rect width="30" height="30" rx="5" fill="#664D44"/>
<path d="M7 22.0937C7 18.9474 9.62857 16.3968 15 16.3968C20.3714 16.3968 23 18.9474 23 22.0937C23 22.5942 22.6348 23 22.1843 23H7.81569C7.3652 23 7 22.5942 7 22.0937Z" fill="white"/>
<path d="M18 10C18 11.6569 16.6569 13 15 13C13.3431 13 12 11.6569 12 10C12 8.34315 13.3431 7 15 7C16.6569 7 18 8.34315 18 10Z" fill="white"/>
<path d="M7 22.0937C7 18.9474 9.62857 16.3968 15 16.3968C20.3714 16.3968 23 18.9474 23 22.0937C23 22.5942 22.6348 23 22.1843 23H7.81569C7.3652 23 7 22.5942 7 22.0937Z" stroke="white"/>
<path d="M18 10C18 11.6569 16.6569 13 15 13C13.3431 13 12 11.6569 12 10C12 8.34315 13.3431 7 15 7C16.6569 7 18 8.34315 18 10Z" stroke="white"/>
</svg>
