<svg width="21" height="19" viewBox="0 0 23 21" fill="none" xmlns="http://www.w3.org/2000/svg">
<path fill-rule="evenodd" clip-rule="evenodd" d="M2.5325 2.69281C3.51406 1.65329 4.84516 1.06932 6.23308 1.06932C7.621 1.06932 8.9521 1.65329 9.93366 2.69281L11.4673 4.31609L13.0009 2.69281C13.4837 2.16321 14.0613 1.74078 14.6999 1.45018C15.3385 1.15957 16.0253 1.00661 16.7203 1.00021C17.4153 0.993811 18.1045 1.13411 18.7478 1.41291C19.3911 1.69172 19.9755 2.10345 20.4669 2.62408C20.9584 3.14471 21.347 3.76382 21.6102 4.44527C21.8734 5.12672 22.0058 5.85688 21.9998 6.59314C21.9938 7.32939 21.8494 8.057 21.5751 8.73351C21.3007 9.41002 20.902 10.0219 20.4021 10.5334L11.4673 20L2.5325 10.5334C1.55124 9.49354 1 8.08342 1 6.61309C1 5.14277 1.55124 3.73264 2.5325 2.69281V2.69281Z" stroke="white" stroke-width="2" stroke-linejoin="round"/>
</svg>
