<svg width="22" height="20" viewBox="0 0 22 20" fill="none" xmlns="http://www.w3.org/2000/svg">
<path d="M10.7261 18.2286V3.4172M10.7261 18.2286L9.26863 16.7712C8.44561 15.9481 7.32986 15.4858 6.16594 15.4858H2.49658C1.89064 15.4858 1.40039 14.9946 1.40039 14.3886V2.86863C1.40039 2.26269 1.8916 1.77148 2.49753 1.77148H6.71401C7.87793 1.77148 8.99418 2.23385 9.8172 3.05687L10.7261 3.96577L11.635 3.05687C12.458 2.23385 13.5743 1.77148 14.7382 1.77148H19.5032C20.1092 1.77148 20.6004 2.26269 20.6004 2.86863V14.3886C20.6004 14.9946 20.1092 15.4858 19.5032 15.4858H15.2868C14.1228 15.4858 13.0066 15.9481 12.1836 16.7712L10.7261 18.2286Z" stroke="black" stroke-width="2" stroke-linecap="round" stroke-linejoin="round"/>
</svg>
