<svg width="20" height="20" viewBox="0 0 20 20" fill="none" xmlns="http://www.w3.org/2000/svg">
<path d="M12.6471 5.80156V3.70156C12.6471 3.14461 12.424 2.61046 12.0268 2.21664C11.6297 1.82281 11.091 1.60156 10.5294 1.60156H3.11765C2.55601 1.60156 2.01738 1.82281 1.62024 2.21664C1.22311 2.61046 1 3.14461 1 3.70156V16.3016C1 16.8585 1.22311 17.3927 1.62024 17.7865C2.01738 18.1803 2.55601 18.4016 3.11765 18.4016H10.5294C11.091 18.4016 11.6297 18.1803 12.0268 17.7865C12.424 17.3927 12.6471 16.8585 12.6471 16.3016V14.2016M6.29412 10.0016H19M19 10.0016L15.8235 6.85156M19 10.0016L15.8235 13.1516" stroke="black" stroke-width="2" stroke-linecap="round" stroke-linejoin="round"/>
</svg>
