<svg width="78" height="78" viewBox="0 0 78 78" fill="none" xmlns="http://www.w3.org/2000/svg">
<rect width="78" height="78" rx="5" fill="#80685D"/>
<path d="M43.9497 22.0502L39 26.9999M39 26.9999L34.0503 31.9496M39 26.9999L43.9497 31.9496M39 26.9999L34.0503 22.0502M53 18.25L53 35.75C53 38.6495 50.6495 41 47.75 41H30.25C27.3505 41 25 38.6495 25 35.75V18.25C25 15.3505 27.3505 13 30.25 13H47.75C50.6495 13 53 15.3505 53 18.25Z" stroke="white" stroke-width="2" stroke-linecap="round"/>
<path d="M38.2812 64.0156H32.625V65.3594C33.9219 65.4323 34.9271 65.6797 35.6406 66.1016C36.3542 66.5234 36.7135 67.099 36.7188 67.8281C36.7188 68.3542 36.526 68.8021 36.1406 69.1719C35.7552 69.5417 35.2005 69.8203 34.4766 70.0078C33.7526 70.2005 32.8906 70.2969 31.8906 70.2969C30.875 70.2969 30.0026 70.2005 29.2734 70.0078C28.5495 69.8203 27.9948 69.5417 27.6094 69.1719C27.224 68.8021 27.0312 68.3542 27.0312 67.8281C27.0312 67.099 27.3906 66.5234 28.1094 66.1016C28.8281 65.6745 29.8438 65.4271 31.1562 65.3594V64.0156H25.5156V62.8125H38.2812V64.0156ZM26.1875 60.9062C27.0156 60.8229 27.776 60.6484 28.4688 60.3828C29.1615 60.1172 29.7214 59.7917 30.1484 59.4062C30.5755 59.0156 30.8229 58.599 30.8906 58.1562H26.6875V56.9688H37.1406V58.1562H32.8906C32.9583 58.6042 33.2057 59.0234 33.6328 59.4141C34.0599 59.7995 34.6198 60.125 35.3125 60.3906C36.0104 60.651 36.7812 60.8229 37.625 60.9062L37.0938 62.0781C36.2812 61.9844 35.526 61.8125 34.8281 61.5625C34.1354 61.3073 33.5365 60.987 33.0312 60.6016C32.526 60.2161 32.1484 59.7786 31.8984 59.2891C31.6432 59.7786 31.263 60.2161 30.7578 60.6016C30.2526 60.987 29.6536 61.3073 28.9609 61.5625C28.2682 61.8125 27.5156 61.9844 26.7031 62.0781L26.1875 60.9062ZM28.5312 67.8281C28.526 68.2552 28.8177 68.5859 29.4062 68.8203C29.9948 69.0495 30.8229 69.1615 31.8906 69.1562C32.9427 69.1615 33.763 69.0495 34.3516 68.8203C34.9401 68.5859 35.2344 68.2552 35.2344 67.8281C35.2344 67.3958 34.9427 67.0651 34.3594 66.8359C33.776 66.6068 32.9531 66.4896 31.8906 66.4844C30.8125 66.4896 29.9818 66.6068 29.3984 66.8359C28.8151 67.0651 28.526 67.3958 28.5312 67.8281ZM50.6637 60.375H52.7106V61.6094H50.6637V66.4531H49.1794V56.3125H50.6637V60.375ZM40.2887 57.5156H46.5387V58.7188H41.7575V62.7969H42.0778C43.3799 62.7969 44.4476 62.7656 45.2809 62.7031C46.1195 62.6406 46.9502 62.526 47.7731 62.3594L47.945 63.5625C47.0231 63.7448 46.0882 63.8698 45.1403 63.9375C44.1924 64 42.945 64.0312 41.3981 64.0312H40.2887V57.5156ZM41.7887 65.4062H43.2731V68.8281H51.2575V70.0312H41.7887V65.4062Z" fill="white"/>
</svg>
