<svg width="37" height="39" viewBox="0 0 37 39" fill="none" xmlns="http://www.w3.org/2000/svg">
<circle cx="18.1953" cy="18.1953" r="18.1953" fill="#80685D"/>
<path d="M4.21094 37.9214L8.30768 30.8984H15.9159L4.21094 37.9214Z" fill="#80685D" stroke="#80685D" stroke-linejoin="round"/>
<path d="M13.4499 24.9991H9.58447C8.94614 24.9991 8.42969 24.496 8.42969 23.8754V12.0768C8.42969 11.4562 8.94715 10.9531 9.58547 10.9531H14.0273C15.2534 10.9531 16.4294 11.4267 17.2964 12.2696L18.2538 13.2005L19.2113 12.2696C20.0783 11.4267 21.2542 10.9531 22.4804 10.9531H27.5001C28.1384 10.9531 28.6559 11.4562 28.6559 12.0768V23.8754C28.6559 24.496 28.1384 24.9991 27.5001 24.9991H23.0583C21.8321 24.9991 20.6562 25.4727 19.7892 26.3156L18.2538 27.8083L16.7185 26.3156C15.8515 25.4727 14.6761 24.9991 13.4499 24.9991Z" fill="white"/>
<path d="M18.2538 27.8083L16.7185 26.3156C15.8515 25.4727 14.6761 24.9991 13.4499 24.9991H9.58447C8.94614 24.9991 8.42969 24.496 8.42969 23.8754V12.0768C8.42969 11.4562 8.94715 10.9531 9.58547 10.9531H14.0273C15.2534 10.9531 16.4294 11.4267 17.2964 12.2696L18.2538 13.2005L19.2113 12.2696C20.0783 11.4267 21.2542 10.9531 22.4804 10.9531H27.5001C28.1384 10.9531 28.6559 11.4562 28.6559 12.0768V23.8754C28.6559 24.496 28.1384 24.9991 27.5001 24.9991H23.0583C21.8321 24.9991 20.6562 25.4727 19.7892 26.3156L18.2538 27.8083ZM18.2538 27.8083V20.2235V12.6386" stroke="#624E45" stroke-linecap="round" stroke-linejoin="round"/>
</svg>
