<svg width="78" height="78" viewBox="0 0 78 78" fill="none" xmlns="http://www.w3.org/2000/svg">
<rect width="78" height="78" rx="5" fill="#80685D"/>
<path d="M27 37.5V16.5C27 14.8431 28.3431 13.5 30 13.5H50.1C50.5971 13.5 51 13.9029 51 14.4V34.0714" stroke="white" stroke-width="2" stroke-linecap="round"/>
<path d="M43.5 34.5V42L47.25 39.6L51 42V34.5" stroke="white" stroke-width="2" stroke-linecap="round" stroke-linejoin="round"/>
<path d="M30 34.5H51" stroke="white" stroke-width="2" stroke-linecap="round"/>
<path d="M30 34.5C28.3431 34.5 27 35.8431 27 37.5C27 39.1569 28.3431 40.5 30 40.5H38.25" stroke="white" stroke-width="2" stroke-linecap="round" stroke-linejoin="round"/>
<path d="M30.1094 63.7188H28.6406V56.3281H30.1094V63.7188ZM18.7969 60.1094C18.7969 59.5 18.9557 58.9557 19.2734 58.4766C19.5911 57.9922 20.0286 57.6146 20.5859 57.3438C21.1484 57.0729 21.7812 56.9375 22.4844 56.9375C23.1823 56.9375 23.8099 57.0729 24.3672 57.3438C24.9245 57.6146 25.362 57.9922 25.6797 58.4766C25.9974 58.9557 26.1562 59.5 26.1562 60.1094C26.1562 60.7188 25.9974 61.263 25.6797 61.7422C25.362 62.2214 24.9245 62.5964 24.3672 62.8672C23.8099 63.1328 23.1823 63.2656 22.4844 63.2656C21.7812 63.2656 21.1484 63.1328 20.5859 62.8672C20.0286 62.5964 19.5911 62.2214 19.2734 61.7422C18.9557 61.263 18.7969 60.7188 18.7969 60.1094ZM20.25 66.6094H23.5156V65.4375H20.25V64.2969H24.9688V67.6719H21.6875V69.0312C22.6406 69.0208 23.4193 68.9974 24.0234 68.9609C24.6328 68.9193 25.25 68.8385 25.875 68.7188L26.0312 69.8281C25.3177 69.9635 24.625 70.0495 23.9531 70.0859C23.2812 70.1276 22.3385 70.151 21.125 70.1562H20.25V66.6094ZM20.25 60.1094C20.25 60.4844 20.3438 60.8203 20.5312 61.1172C20.724 61.4141 20.9896 61.6458 21.3281 61.8125C21.6719 61.9792 22.0573 62.0625 22.4844 62.0625C22.9062 62.0625 23.2865 61.9792 23.625 61.8125C23.9688 61.6458 24.237 61.4141 24.4297 61.1172C24.6224 60.8203 24.7188 60.4844 24.7188 60.1094C24.7188 59.7292 24.6224 59.3932 24.4297 59.1016C24.237 58.8047 23.9688 58.5755 23.625 58.4141C23.2865 58.2526 22.9062 58.1719 22.4844 58.1719C22.0573 58.1719 21.6719 58.2526 21.3281 58.4141C20.9896 58.5755 20.724 58.8047 20.5312 59.1016C20.3438 59.3932 20.25 59.7292 20.25 60.1094ZM25.5469 64.2969H30.1094V70.2344H28.6562V65.5156H25.5469V64.2969ZM43.9919 61.6094H34.3512V56.8281H35.82V60.4219H43.9919V61.6094ZM32.6481 63.375H45.4606V64.5625H32.6481V63.375ZM34.2419 65.8906H35.7262V68.7812H44.0856V70H34.2419V65.8906ZM59.5775 64.0156H53.9212V65.3594C55.2181 65.4323 56.2233 65.6797 56.9369 66.1016C57.6504 66.5234 58.0098 67.099 58.015 67.8281C58.015 68.3542 57.8223 68.8021 57.4369 69.1719C57.0515 69.5417 56.4968 69.8203 55.7728 70.0078C55.0489 70.2005 54.1869 70.2969 53.1869 70.2969C52.1712 70.2969 51.2989 70.2005 50.5697 70.0078C49.8457 69.8203 49.291 69.5417 48.9056 69.1719C48.5202 68.8021 48.3275 68.3542 48.3275 67.8281C48.3275 67.099 48.6869 66.5234 49.4056 66.1016C50.1244 65.6745 51.14 65.4271 52.4525 65.3594V64.0156H46.8119V62.8125H59.5775V64.0156ZM47.4837 60.9062C48.3119 60.8229 49.0723 60.6484 49.765 60.3828C50.4577 60.1172 51.0176 59.7917 51.4447 59.4062C51.8718 59.0156 52.1192 58.599 52.1869 58.1562H47.9837V56.9688H58.4369V58.1562H54.1869C54.2546 58.6042 54.502 59.0234 54.9291 59.4141C55.3561 59.7995 55.916 60.125 56.6087 60.3906C57.3067 60.651 58.0775 60.8229 58.9212 60.9062L58.39 62.0781C57.5775 61.9844 56.8223 61.8125 56.1244 61.5625C55.4317 61.3073 54.8327 60.987 54.3275 60.6016C53.8223 60.2161 53.4447 59.7786 53.1947 59.2891C52.9395 59.7786 52.5593 60.2161 52.0541 60.6016C51.5489 60.987 50.9499 61.3073 50.2572 61.5625C49.5645 61.8125 48.8119 61.9844 47.9994 62.0781L47.4837 60.9062ZM49.8275 67.8281C49.8223 68.2552 50.114 68.5859 50.7025 68.8203C51.291 69.0495 52.1192 69.1615 53.1869 69.1562C54.239 69.1615 55.0593 69.0495 55.6478 68.8203C56.2364 68.5859 56.5306 68.2552 56.5306 67.8281C56.5306 67.3958 56.239 67.0651 55.6556 66.8359C55.0723 66.6068 54.2494 66.4896 53.1869 66.4844C52.1087 66.4896 51.278 66.6068 50.6947 66.8359C50.1114 67.0651 49.8223 67.3958 49.8275 67.8281Z" fill="white"/>
</svg>
