<svg width="78" height="78" viewBox="0 0 78 78" fill="none" xmlns="http://www.w3.org/2000/svg">
<rect width="78" height="78" rx="5" fill="#80685D"/>
<path d="M39 18.25V23.5M39 28.75V28.6184M42.8043 33.6957L39 41L35.5 33.6957H28.5C26.567 33.6957 25 32.1286 25 30.1957V16.5C25 14.567 26.567 13 28.5 13H49.5C51.433 13 53 14.567 53 16.5V30.1957C53 32.1286 51.433 33.6957 49.5 33.6957H42.8043Z" stroke="white" stroke-width="2" stroke-linecap="round" stroke-linejoin="round"/>
<path d="M14.3906 58.7812C14.3854 59.3802 14.5156 59.9531 14.7812 60.5C15.0521 61.0417 15.4427 61.5234 15.9531 61.9453C16.4688 62.3672 17.0781 62.6927 17.7812 62.9219L17.0312 64.1094C16.25 63.849 15.5703 63.4609 14.9922 62.9453C14.4141 62.4297 13.9688 61.8281 13.6562 61.1406C13.3438 61.9062 12.8854 62.5755 12.2812 63.1484C11.6823 63.7161 10.974 64.1458 10.1562 64.4375L9.39062 63.2344C10.1094 63 10.7318 62.6589 11.2578 62.2109C11.7839 61.7578 12.1849 61.237 12.4609 60.6484C12.7422 60.0599 12.8854 59.4427 12.8906 58.7969V58.4531H9.82812V57.25H17.4062V58.4531H14.3906V58.7812ZM11.5781 65.1406H20.5156V70.1562H11.5781V65.1406ZM19.0469 68.9531V66.3125H13.0312V68.9531H19.0469ZM19.0312 56.3281H20.5156V59.7188H22.5469V60.9375H20.5156V64.5312H19.0312V56.3281ZM28.8044 59.8906C28.7992 60.7344 28.9528 61.5651 29.2653 62.3828C29.583 63.2005 30.0231 63.9271 30.5856 64.5625C31.1533 65.1927 31.794 65.6667 32.5075 65.9844L31.6169 67.1562C30.82 66.776 30.1143 66.2135 29.4997 65.4688C28.8851 64.724 28.4111 63.8698 28.0778 62.9062C27.7497 63.9479 27.2705 64.8672 26.6403 65.6641C26.0153 66.4609 25.2887 67.0625 24.4606 67.4688L23.5544 66.2188C24.2783 65.901 24.9242 65.4141 25.4919 64.7578C26.0596 64.0964 26.5023 63.3411 26.82 62.4922C27.1429 61.638 27.3044 60.7708 27.3044 59.8906V57.5H28.8044V59.8906ZM33.7731 56.3281H35.2575V70.3594H33.7731V56.3281ZM53.71 64.3281H52.2256V60.9219H49.1787V63.5469H42.6787V57.2969H49.1787V59.7031H52.2256V56.3281H53.71V64.3281ZM47.7256 62.3594V58.4844H44.1475V62.3594H47.7256ZM44.4756 65.0156H53.71V70.1562H44.4756V65.0156ZM52.2569 68.9531V66.2031H45.9444V68.9531H52.2569ZM63.2956 57.7969H67.6706V58.9531H63.3816C63.4336 59.4323 63.668 59.8698 64.0847 60.2656C64.5014 60.6615 65.0665 60.9896 65.78 61.25C66.4987 61.5104 67.3165 61.6823 68.2331 61.7656L67.7487 62.9062C66.53 62.7812 65.4649 62.5078 64.5534 62.0859C63.6472 61.6589 62.9831 61.1068 62.5612 60.4297C62.1342 61.1068 61.4649 61.6589 60.5534 62.0859C59.6472 62.5078 58.5873 62.7812 57.3737 62.9062L56.8894 61.7656C57.806 61.6823 58.6185 61.5104 59.3269 61.25C60.0404 60.9896 60.6055 60.6615 61.0222 60.2656C61.4441 59.8698 61.681 59.4323 61.7331 58.9531H57.4675V57.7969H61.8269V56.3281H63.2956V57.7969ZM56.1706 63.6719H68.9831V64.8594H63.4206V67.4844H61.9519V64.8594H56.1706V63.6719ZM57.7644 66.1562H59.2487V68.8281H67.5612V70.0312H57.7644V66.1562Z" fill="white"/>
</svg>
