<svg width="78" height="78" viewBox="0 0 78 78" fill="none" xmlns="http://www.w3.org/2000/svg">
<rect x="0.5" y="0.5" width="77" height="77" rx="4.5" fill="white" stroke="#80685D"/>
<path d="M39.2083 39.7304C41.2953 38.2 47.0553 36.0574 53.3996 39.7304V16.7739M24.5996 16.3565V39.7304C26.6866 38.2 32.4466 36.0574 38.7909 39.7304V17.1913M24.5996 16.2976C26.6866 14.7672 32.4466 12.6246 38.7909 16.2976M39.2083 16.2976C41.2953 14.7672 47.0553 12.6246 53.3996 16.2976" stroke="#624E45" stroke-width="2" stroke-linecap="round" stroke-linejoin="round"/>
<path d="M37.1094 63.7188H35.6406V56.3281H37.1094V63.7188ZM25.7969 60.1094C25.7969 59.5 25.9557 58.9557 26.2734 58.4766C26.5911 57.9922 27.0286 57.6146 27.5859 57.3438C28.1484 57.0729 28.7812 56.9375 29.4844 56.9375C30.1823 56.9375 30.8099 57.0729 31.3672 57.3438C31.9245 57.6146 32.362 57.9922 32.6797 58.4766C32.9974 58.9557 33.1562 59.5 33.1562 60.1094C33.1562 60.7188 32.9974 61.263 32.6797 61.7422C32.362 62.2214 31.9245 62.5964 31.3672 62.8672C30.8099 63.1328 30.1823 63.2656 29.4844 63.2656C28.7812 63.2656 28.1484 63.1328 27.5859 62.8672C27.0286 62.5964 26.5911 62.2214 26.2734 61.7422C25.9557 61.263 25.7969 60.7188 25.7969 60.1094ZM27.25 66.6094H30.5156V65.4375H27.25V64.2969H31.9688V67.6719H28.6875V69.0312C29.6406 69.0208 30.4193 68.9974 31.0234 68.9609C31.6328 68.9193 32.25 68.8385 32.875 68.7188L33.0312 69.8281C32.3177 69.9635 31.625 70.0495 30.9531 70.0859C30.2812 70.1276 29.3385 70.151 28.125 70.1562H27.25V66.6094ZM27.25 60.1094C27.25 60.4844 27.3438 60.8203 27.5312 61.1172C27.724 61.4141 27.9896 61.6458 28.3281 61.8125C28.6719 61.9792 29.0573 62.0625 29.4844 62.0625C29.9062 62.0625 30.2865 61.9792 30.625 61.8125C30.9688 61.6458 31.237 61.4141 31.4297 61.1172C31.6224 60.8203 31.7188 60.4844 31.7188 60.1094C31.7188 59.7292 31.6224 59.3932 31.4297 59.1016C31.237 58.8047 30.9688 58.5755 30.625 58.4141C30.2865 58.2526 29.9062 58.1719 29.4844 58.1719C29.0573 58.1719 28.6719 58.2526 28.3281 58.4141C27.9896 58.5755 27.724 58.8047 27.5312 59.1016C27.3438 59.3932 27.25 59.7292 27.25 60.1094ZM32.5469 64.2969H37.1094V70.2344H35.6562V65.5156H32.5469V64.2969ZM46.0387 56.625C47.0596 56.625 47.945 56.7318 48.695 56.9453C49.445 57.1536 50.0231 57.4609 50.4294 57.8672C50.8356 58.2734 51.0387 58.7552 51.0387 59.3125C51.0387 59.8594 50.8356 60.3333 50.4294 60.7344C50.0231 61.1302 49.445 61.4323 48.695 61.6406C47.945 61.849 47.0596 61.9531 46.0387 61.9531C45.0231 61.9531 44.1377 61.849 43.3825 61.6406C42.6325 61.4323 42.0544 61.1302 41.6481 60.7344C41.2419 60.3333 41.0387 59.8594 41.0387 59.3125C41.0387 58.7552 41.2419 58.2734 41.6481 57.8672C42.0544 57.4609 42.6325 57.1536 43.3825 56.9453C44.1377 56.7318 45.0231 56.625 46.0387 56.625ZM39.6637 63.0312H52.4294V64.2344H39.6637V63.0312ZM41.195 65.4844H50.8669V70.1562H41.195V65.4844ZM42.57 59.3125C42.57 59.6198 42.708 59.8854 42.9841 60.1094C43.2601 60.3281 43.6585 60.4974 44.1794 60.6172C44.7002 60.737 45.32 60.7969 46.0387 60.7969C46.7523 60.7969 47.3695 60.737 47.8903 60.6172C48.4111 60.4974 48.8096 60.3281 49.0856 60.1094C49.3669 59.8854 49.5075 59.6198 49.5075 59.3125C49.5075 58.9948 49.3695 58.724 49.0934 58.5C48.8174 58.2708 48.4216 58.0964 47.9059 57.9766C47.3955 57.8568 46.7887 57.7969 46.0856 57.7969C44.9867 57.7969 44.1247 57.9297 43.4997 58.1953C42.8747 58.4557 42.5648 58.8281 42.57 59.3125ZM49.4294 68.9531V66.6719H42.6637V68.9531H49.4294Z" fill="#656565"/>
</svg>
