<svg width="30" height="33" viewBox="0 0 30 33" fill="none" xmlns="http://www.w3.org/2000/svg">
<rect width="29.0714" height="29.0714" rx="14.5357" fill="#80685D"/>
<path d="M3 31.8929L6.4375 26H12.8214L3 31.8929Z" fill="#80685D" stroke="#80685D" stroke-linejoin="round"/>
<path d="M9.5 21.7293L13.9878 21.7293L19.8631 21.7293C21.9149 21.7293 23.5781 20.066 23.5781 18.0143L23.5781 11.715C23.5781 9.66326 21.9149 8 19.8631 8L8.71818 8C6.66645 8 5.00319 9.66325 5.00319 11.715L5.00319 18.0143C5.00319 20.066 6.66645 21.7293 8.71818 21.7293L9.14217 21.7293L9.5 21.7293Z" fill="white" stroke="#624E45" stroke-linecap="round" stroke-linejoin="round"/>
<path d="M9 12.0037H12.8698M9 15.0995H19.3194H9ZM9 18.1953H14.1597H9Z" stroke="#664D44" stroke-linecap="round" stroke-linejoin="round"/>
</svg>
