<svg viewBox="0 0 32 35" fill="none" xmlns="http://www.w3.org/2000/svg" preserveAspectRatio="xMidYMid meet">
  <rect width="31.07" height="31.07" rx="15.535" fill="#80685D"/>
  <path d="M3.20459 34.0831L6.87841 27.7852H13.7012L3.20459 34.0831Z" fill="#80685D" stroke="#80685D" stroke-linejoin="round"/>
  <path d="M9.74706 22.4468L13.6503 18.5436L18.383 18.5436C20.0357 18.5436 21.3755 17.2038 21.3755 15.5511V10.4769C21.3755 8.82416 20.0357 7.48437 18.383 7.48437H9.40552C7.75282 7.48437 6.41303 8.82416 6.41303 10.4769V15.5511C6.41303 17.2038 7.75282 18.5436 9.40552 18.5436H9.74706V22.4468Z" fill="white" stroke="#624E45" stroke-linecap="round" stroke-linejoin="round"/>
  <path d="M23.2718 25.6523L20.4838 22.8643H17.1033C15.9228 22.8643 14.9658 21.9073 14.9658 20.7268V17.1023C14.9658 15.9218 15.9228 14.9648 17.1033 14.9648H23.5158C24.6963 14.9648 25.6533 15.9218 25.6533 17.1023V20.7268C25.6533 21.9073 24.6963 22.8643 23.5158 22.8643H23.2718V25.6523Z" fill="white" stroke="#624E45" stroke-linecap="round" stroke-linejoin="round"/>
</svg>
