<svg width="30" height="33" viewBox="0 0 30 33" fill="none" xmlns="http://www.w3.org/2000/svg">
<rect width="29.0714" height="29.0714" rx="14.5357" fill="#80685D"/>
<path d="M3 31.8929L6.4375 26H12.8214L3 31.8929Z" fill="#80685D" stroke="#80685D" stroke-linejoin="round"/>
<path d="M9.11957 21L12.7717 17.3478L17.2 17.3478C18.7464 17.3478 20 16.0942 20 14.5478L20 9.8C20 8.2536 18.7464 7 17.2 7L8.8 7C7.2536 7 6 8.2536 6 9.8L6 14.5478C6 16.0942 7.2536 17.3478 8.8 17.3478L9.11957 17.3478L9.11957 21Z" fill="white" stroke="#624E45" stroke-linecap="round" stroke-linejoin="round"/>
<path d="M21.7717 24L19.163 21.3913H16C14.8954 21.3913 14 20.4959 14 19.3913V16C14 14.8954 14.8954 14 16 14H22C23.1046 14 24 14.8954 24 16V19.3913C24 20.4959 23.1046 21.3913 22 21.3913H21.7717V24Z" fill="white" stroke="#624E45" stroke-linecap="round" stroke-linejoin="round"/>
</svg>
