<svg width="32" height="33" viewBox="0 0 32 33" fill="none" xmlns="http://www.w3.org/2000/svg">
<ellipse cx="15.535" cy="15.535" rx="15.535" ry="15.535" fill="#80685D"/>
<path d="M3.60156 32.3868L7.09933 26.3906H13.5952L3.60156 32.3868Z" fill="#80685D" stroke="#80685D" stroke-linejoin="round"/>
<path d="M17.8333 13.1667H22.2003C22.5128 13.1667 22.8201 13.2465 23.093 13.3987C23.3659 13.5508 23.5954 13.7702 23.7597 14.036C23.924 14.3018 24.0176 14.6051 24.0317 14.9173C24.0458 15.2294 23.9799 15.54 23.8402 15.8195L20.6319 22.2362C20.4796 22.5409 20.2454 22.7972 19.9556 22.9763C19.6658 23.1554 19.3318 23.2502 18.9911 23.25H15.3088C15.1594 23.25 15.01 23.2317 14.8642 23.195L11.4167 22.3333M17.8333 13.1667V8.58333C17.8333 8.0971 17.6402 7.63079 17.2964 7.28697C16.9525 6.94315 16.4862 6.75 16 6.75H15.9129C15.4546 6.75 15.0833 7.12125 15.0833 7.57958C15.0833 8.23408 14.8899 8.87392 14.526 9.41842L11.4167 14.0833V22.3333M17.8333 13.1667H16M11.4167 22.3333H9.58333C9.0971 22.3333 8.63079 22.1402 8.28697 21.7964C7.94315 21.4525 7.75 20.9862 7.75 20.5V15C7.75 14.5138 7.94315 14.0475 8.28697 13.7036C8.63079 13.3598 9.0971 13.1667 9.58333 13.1667H11.875" stroke="white" stroke-linecap="round" stroke-linejoin="round"/>
</svg>
