<svg width="30" height="30" viewBox="0 0 30 30" fill="none" xmlns="http://www.w3.org/2000/svg">
<rect width="30" height="30" rx="5" fill="#664D44"/>
<path d="M8 8C8 6.89543 8.89543 6 10 6H20.625C21.7296 6 22.625 6.89543 22.625 8V19.5H8V8Z" fill="white"/>
<path d="M10.5435 24H21.3533C22.0556 24 22.625 23.3801 22.625 22.6154V18.4615H10.5435C9.13875 18.4615 8 19.7014 8 21.2308C8 22.7602 9.13875 24 10.5435 24Z" fill="white"/>
<path d="M22.625 18.4615H10.5435C9.13875 18.4615 8 19.7014 8 21.2308M22.625 18.4615V22.6154C22.625 23.3801 22.0556 24 21.3533 24H10.5435C9.13875 24 8 22.7602 8 21.2308M22.625 18.4615V7.38462C22.625 6.61991 22.0556 6 21.3533 6H12.1332H10.5435C9.13875 6 8 7.23983 8 8.76923V21.2308" stroke="#664D44" stroke-linecap="round" stroke-linejoin="round"/>
</svg>
