<svg width="20" height="18" viewBox="0 0 20 18" fill="none" xmlns="http://www.w3.org/2000/svg">
<path d="M15.3909 17.7506C15.2594 17.7511 15.131 17.7101 15.0241 17.6334L10.0003 13.9912L4.97648 17.6334C4.86915 17.7113 4.73985 17.753 4.60726 17.7525C4.47467 17.752 4.34567 17.7094 4.2389 17.6307C4.13214 17.5521 4.05315 17.4416 4.01335 17.3151C3.97355 17.1886 3.975 17.0528 4.0175 16.9272L5.97687 11.1236L0.898748 7.64122C0.788753 7.56587 0.705734 7.45733 0.661823 7.33144C0.617912 7.20555 0.615409 7.06892 0.65468 6.9415C0.693951 6.81409 0.772938 6.70257 0.8801 6.62325C0.987263 6.54392 1.11698 6.50095 1.25031 6.5006H7.51516L9.40578 0.682237C9.44651 0.556621 9.52598 0.447132 9.63279 0.36948C9.7396 0.291827 9.86826 0.25 10.0003 0.25C10.1324 0.25 10.261 0.291827 10.3678 0.36948C10.4746 0.447132 10.5541 0.556621 10.5948 0.682237L12.4855 6.50255H18.7503C18.8838 6.50248 19.0138 6.54516 19.1213 6.62434C19.2288 6.70351 19.3081 6.81501 19.3476 6.94253C19.3871 7.07004 19.3848 7.20685 19.3409 7.33293C19.297 7.45901 19.214 7.56773 19.1038 7.64317L14.0238 11.1236L15.982 16.9256C16.0137 17.0195 16.0226 17.1197 16.008 17.2177C15.9934 17.3158 15.9556 17.409 15.8979 17.4896C15.8402 17.5702 15.7641 17.6359 15.6759 17.6813C15.5878 17.7267 15.4901 17.7504 15.3909 17.7506Z" fill="#1E293B"/>
</svg>
