<svg width="73" height="64" viewBox="0 0 73 64" fill="none" xmlns="http://www.w3.org/2000/svg">
<path d="M44.9173 30.001C44.7068 30.0018 44.5014 29.9362 44.3304 29.8135L36.2923 23.986L28.2542 29.8135C28.0824 29.938 27.8756 30.0047 27.6634 30.004C27.4513 30.0032 27.2449 29.935 27.074 29.8092C26.9032 29.6834 26.7768 29.5065 26.7132 29.3041C26.6495 29.1018 26.6518 28.8844 26.7198 28.6835L29.8548 19.3978L21.7298 13.826C21.5538 13.7054 21.421 13.5317 21.3507 13.3303C21.2805 13.1289 21.2765 12.9103 21.3393 12.7064C21.4021 12.5025 21.5285 12.3241 21.7 12.1972C21.8714 12.0703 22.079 12.0015 22.2923 12.001H32.316L35.341 2.69158C35.4062 2.49059 35.5334 2.31541 35.7043 2.19117C35.8752 2.06692 36.081 2 36.2923 2C36.5036 2 36.7094 2.06692 36.8803 2.19117C37.0512 2.31541 37.1784 2.49059 37.2435 2.69158L40.2685 12.0041H50.2923C50.5059 12.004 50.7139 12.0723 50.8859 12.1989C51.0578 12.3256 51.1847 12.504 51.248 12.708C51.3112 12.9121 51.3074 13.131 51.2373 13.3327C51.1671 13.5344 51.0341 13.7084 50.8579 13.8291L42.7298 19.3978L45.8629 28.681C45.9137 28.8313 45.928 28.9915 45.9046 29.1484C45.8812 29.3053 45.8208 29.4544 45.7284 29.5833C45.636 29.7123 45.5143 29.8174 45.3733 29.89C45.2322 29.9626 45.0759 30.0007 44.9173 30.001Z" fill="#0F172A"/>
<path d="M24.6243 62.001C24.4138 62.0018 24.2085 61.9362 24.0375 61.8135L15.9993 55.986L7.9612 61.8135C7.78947 61.938 7.58258 62.0047 7.37044 62.004C7.1583 62.0032 6.95189 61.935 6.78108 61.8092C6.61026 61.6834 6.48387 61.5065 6.42019 61.3041C6.35651 61.1018 6.35883 60.8844 6.42683 60.6835L9.56183 51.3978L1.43683 45.826C1.26083 45.7054 1.128 45.5317 1.05774 45.3303C0.987487 45.1289 0.983482 44.9103 1.04632 44.7064C1.10915 44.5025 1.23553 44.3241 1.40699 44.1972C1.57845 44.0703 1.786 44.0015 1.99933 44.001H12.0231L15.0481 34.6916C15.1132 34.4906 15.2404 34.3154 15.4113 34.1912C15.5822 34.0669 15.788 34 15.9993 34C16.2106 34 16.4165 34.0669 16.5874 34.1912C16.7583 34.3154 16.8854 34.4906 16.9506 34.6916L19.9756 44.0041H29.9993C30.2129 44.004 30.4209 44.0723 30.5929 44.1989C30.7649 44.3256 30.8918 44.504 30.955 44.708C31.0182 44.9121 31.0145 45.131 30.9443 45.3327C30.8741 45.5344 30.7412 45.7084 30.565 45.8291L22.4368 51.3978L25.57 60.681C25.6207 60.8313 25.635 60.9915 25.6116 61.1484C25.5882 61.3053 25.5279 61.4544 25.4355 61.5833C25.3431 61.7123 25.2213 61.8174 25.0803 61.89C24.9393 61.9626 24.783 62.0007 24.6243 62.001Z" fill="#0F172A"/>
<path d="M65.2103 62.001C64.9998 62.0018 64.7944 61.9362 64.6234 61.8135L56.5853 55.986L48.5471 61.8135C48.3754 61.938 48.1685 62.0047 47.9564 62.004C47.7442 62.0032 47.5378 61.935 47.367 61.8092C47.1962 61.6834 47.0698 61.5065 47.0061 61.3041C46.9424 61.1018 46.9448 60.8844 47.0128 60.6835L50.1478 51.3978L42.0228 45.826C41.8468 45.7054 41.7139 45.5317 41.6437 45.3303C41.5734 45.1289 41.5694 44.9103 41.6323 44.7064C41.6951 44.5025 41.8215 44.3241 41.9929 44.1972C42.1644 44.0703 42.3719 44.0015 42.5853 44.001H52.609L55.634 34.6916C55.6992 34.4906 55.8263 34.3154 55.9972 34.1912C56.1681 34.0669 56.374 34 56.5853 34C56.7966 34 57.0024 34.0669 57.1733 34.1912C57.3442 34.3154 57.4714 34.4906 57.5365 34.6916L60.5615 44.0041H70.5853C70.7989 44.004 71.0069 44.0723 71.1788 44.1989C71.3508 44.3256 71.4777 44.504 71.5409 44.708C71.6042 44.9121 71.6004 45.131 71.5302 45.3327C71.46 45.5344 71.3271 45.7084 71.1509 45.8291L63.0228 51.3978L66.1559 60.681C66.2067 60.8313 66.2209 60.9915 66.1976 61.1484C66.1742 61.3053 66.1138 61.4544 66.0214 61.5833C65.929 61.7123 65.8073 61.8174 65.6662 61.89C65.5252 61.9626 65.3689 62.0007 65.2103 62.001Z" fill="#0F172A"/>
</svg>
