<svg width="78" height="78" viewBox="0 0 78 78" fill="none" xmlns="http://www.w3.org/2000/svg">
<rect width="78" height="78" rx="5" fill="#80685D"/>
<path d="M50.7692 32.3846H30.3077C27.9286 32.3846 26 34.3132 26 36.6923M50.7692 32.3846V38.8462C50.7692 40.0357 49.8049 41 48.6154 41H30.3077C27.9286 41 26 39.0714 26 36.6923M50.7692 32.3846V15.1538C50.7692 13.9643 49.8049 13 48.6154 13H33M26 36.6923V17.3077C26 14.9286 27.9286 13 30.3077 13H33M38.4683 19.4615H44.375M38.4683 25.9231H44.375M33 32.25V13" stroke="white" stroke-width="2" stroke-linecap="round" stroke-linejoin="round"/>
<path d="M22.1094 63.7188H20.6406V56.3281H22.1094V63.7188ZM10.7969 60.1094C10.7969 59.5 10.9557 58.9557 11.2734 58.4766C11.5911 57.9922 12.0286 57.6146 12.5859 57.3438C13.1484 57.0729 13.7812 56.9375 14.4844 56.9375C15.1823 56.9375 15.8099 57.0729 16.3672 57.3438C16.9245 57.6146 17.362 57.9922 17.6797 58.4766C17.9974 58.9557 18.1562 59.5 18.1562 60.1094C18.1562 60.7188 17.9974 61.263 17.6797 61.7422C17.362 62.2214 16.9245 62.5964 16.3672 62.8672C15.8099 63.1328 15.1823 63.2656 14.4844 63.2656C13.7812 63.2656 13.1484 63.1328 12.5859 62.8672C12.0286 62.5964 11.5911 62.2214 11.2734 61.7422C10.9557 61.263 10.7969 60.7188 10.7969 60.1094ZM12.25 66.6094H15.5156V65.4375H12.25V64.2969H16.9688V67.6719H13.6875V69.0312C14.6406 69.0208 15.4193 68.9974 16.0234 68.9609C16.6328 68.9193 17.25 68.8385 17.875 68.7188L18.0312 69.8281C17.3177 69.9635 16.625 70.0495 15.9531 70.0859C15.2812 70.1276 14.3385 70.151 13.125 70.1562H12.25V66.6094ZM12.25 60.1094C12.25 60.4844 12.3438 60.8203 12.5312 61.1172C12.724 61.4141 12.9896 61.6458 13.3281 61.8125C13.6719 61.9792 14.0573 62.0625 14.4844 62.0625C14.9062 62.0625 15.2865 61.9792 15.625 61.8125C15.9688 61.6458 16.237 61.4141 16.4297 61.1172C16.6224 60.8203 16.7188 60.4844 16.7188 60.1094C16.7188 59.7292 16.6224 59.3932 16.4297 59.1016C16.237 58.8047 15.9688 58.5755 15.625 58.4141C15.2865 58.2526 14.9062 58.1719 14.4844 58.1719C14.0573 58.1719 13.6719 58.2526 13.3281 58.4141C12.9896 58.5755 12.724 58.8047 12.5312 59.1016C12.3438 59.3932 12.25 59.7292 12.25 60.1094ZM17.5469 64.2969H22.1094V70.2344H20.6562V65.5156H17.5469V64.2969ZM35.9919 59.0469C35.9867 59.8542 35.9736 60.5443 35.9528 61.1172C35.9372 61.6849 35.8903 62.349 35.8122 63.1094C35.7393 63.8698 35.6221 64.6927 35.4606 65.5781L33.9606 65.4219C34.1273 64.5833 34.2497 63.7943 34.3278 63.0547C34.4059 62.3099 34.4528 61.6536 34.4684 61.0859C34.4893 60.5182 34.5023 59.8385 34.5075 59.0469V58.875H26.0075V57.6719H35.9919V59.0469ZM24.6637 67.2031H29.5231V62.2656H30.9919V67.2031H37.4294V68.4375H24.6637V67.2031ZM50.4212 64.1094H48.9369V56.3438H50.4212V64.1094ZM38.8587 62.6719C39.5723 62.4375 40.1947 62.0938 40.7259 61.6406C41.2624 61.1823 41.6739 60.6562 41.9603 60.0625C42.2468 59.4688 42.39 58.849 42.39 58.2031V56.8438H43.9056V58.2031C43.9056 58.8177 44.0462 59.4089 44.3275 59.9766C44.6087 60.5391 45.0124 61.0339 45.5384 61.4609C46.0697 61.888 46.6869 62.2083 47.39 62.4219L46.6712 63.5938C45.8587 63.3281 45.1504 62.9323 44.5462 62.4062C43.9421 61.8802 43.4785 61.2604 43.1556 60.5469C42.8379 61.3177 42.3718 61.9896 41.7572 62.5625C41.1426 63.1354 40.4212 63.5625 39.5931 63.8438L38.8587 62.6719ZM40.9056 68.9531H42.9056V66.0625H41.0306V64.875H50.515V66.0625H48.6712V68.9531H50.6556V70.1562H40.9056V68.9531ZM47.2025 68.9531V66.0625H44.3744V68.9531H47.2025ZM65.7256 64.8281H52.96V63.6406H65.7256V64.8281ZM54.335 59.5938C54.335 59.0156 54.5381 58.5156 54.9444 58.0938C55.3506 57.6719 55.9314 57.3516 56.6866 57.1328C57.4418 56.9089 58.3246 56.7969 59.335 56.7969C60.3402 56.7969 61.2178 56.9089 61.9678 57.1328C62.723 57.3516 63.3064 57.6719 63.7178 58.0938C64.1293 58.5156 64.335 59.0156 64.335 59.5938C64.335 60.1771 64.1293 60.6823 63.7178 61.1094C63.3064 61.5365 62.723 61.8646 61.9678 62.0938C61.2178 62.3229 60.3402 62.4375 59.335 62.4375C58.3246 62.4375 57.4418 62.3229 56.6866 62.0938C55.9314 61.8646 55.3506 61.5365 54.9444 61.1094C54.5381 60.6823 54.335 60.1771 54.335 59.5938ZM54.5694 65.9688H56.0694V68.8281H64.2881V70.0312H54.5694V65.9688ZM55.8662 59.5938C55.8662 59.9375 56.0043 60.2318 56.2803 60.4766C56.5564 60.7161 56.9548 60.901 57.4756 61.0312C58.0017 61.1562 58.6215 61.2188 59.335 61.2188C60.0485 61.2188 60.6657 61.1562 61.1866 61.0312C61.7074 60.901 62.1058 60.7161 62.3819 60.4766C62.6631 60.2318 62.8037 59.9375 62.8037 59.5938C62.8037 59.2656 62.6631 58.9818 62.3819 58.7422C62.1058 58.4974 61.7048 58.3099 61.1787 58.1797C60.6579 58.0495 60.0433 57.9844 59.335 57.9844C58.6215 57.9844 58.0043 58.0495 57.4834 58.1797C56.9626 58.3099 56.5616 58.4974 56.2803 58.7422C56.0043 58.9818 55.8662 59.2656 55.8662 59.5938Z" fill="white"/>
</svg>
