<svg width="21" height="21" viewBox="0 0 21 21" fill="none" xmlns="http://www.w3.org/2000/svg">
<path fill-rule="evenodd" clip-rule="evenodd" d="M12.1065 3.13838C11.6968 1.45648 9.30324 1.45648 8.89354 3.13838C8.83238 3.39111 8.7124 3.62583 8.54338 3.82344C8.37436 4.02105 8.16108 4.17596 7.92088 4.27557C7.68068 4.37518 7.42035 4.41667 7.16109 4.39667C6.90183 4.37666 6.65095 4.29573 6.42887 4.16046C4.94964 3.25913 3.25693 4.95181 4.15827 6.43102C4.74048 7.38626 4.22404 8.63259 3.13725 8.89673C1.45425 9.30535 1.45425 11.6999 3.13725 12.1074C3.39006 12.1687 3.62483 12.2888 3.82244 12.4579C4.02005 12.6271 4.17492 12.8405 4.27443 13.0808C4.37395 13.3211 4.41529 13.5816 4.39511 13.8409C4.37492 14.1002 4.29377 14.3511 4.15827 14.5732C3.25693 16.0524 4.94964 17.745 6.42887 16.8437C6.65091 16.7082 6.90181 16.6271 7.16114 16.6069C7.42047 16.5867 7.68091 16.628 7.92124 16.7276C8.16157 16.8271 8.37499 16.9819 8.54414 17.1795C8.71329 17.3772 8.83338 17.6119 8.89462 17.8647C9.30324 19.5477 11.6978 19.5477 12.1054 17.8647C12.1668 17.6121 12.287 17.3774 12.4562 17.18C12.6254 16.9825 12.8388 16.8277 13.079 16.7283C13.3193 16.6288 13.5796 16.5874 13.8389 16.6074C14.0982 16.6275 14.349 16.7085 14.5711 16.8437C16.0504 17.745 17.7431 16.0524 16.8417 14.5732C16.7065 14.3511 16.6255 14.1002 16.6054 13.8409C16.5854 13.5817 16.6268 13.3213 16.7263 13.0811C16.8257 12.8408 16.9805 12.6275 17.178 12.4583C17.3755 12.2891 17.6101 12.1689 17.8627 12.1074C19.5458 11.6988 19.5458 9.30427 17.8627 8.89673C17.6099 8.83549 17.3752 8.71541 17.1776 8.54626C16.98 8.37712 16.8251 8.16369 16.7256 7.92337C16.6261 7.68304 16.5847 7.42261 16.6049 7.16328C16.6251 6.90395 16.7062 6.65306 16.8417 6.43102C17.7431 4.95181 16.0504 3.25913 14.5711 4.16046C14.3491 4.29596 14.0982 4.37711 13.8389 4.39729C13.5795 4.41748 13.3191 4.37613 13.0788 4.27662C12.8384 4.1771 12.625 4.02224 12.4559 3.82463C12.2867 3.62702 12.1666 3.39226 12.1054 3.13946L12.1065 3.13838Z" stroke="#656565" stroke-width="2"/>
<path d="M12.4167 10.502C12.4167 11.5605 11.5585 12.4186 10.5 12.4186C9.44145 12.4186 8.58333 11.5605 8.58333 10.502C8.58333 9.44341 9.44145 8.58529 10.5 8.58529C11.5585 8.58529 12.4167 9.44341 12.4167 10.502Z" stroke="#656565" stroke-width="2"/>
</svg>
